<?xml version="1.0" encoding="UTF-8" standalone="no"?> <svg xmlns="http://www.w3.org/2000/svg" xmlns:xlink="http://www.w3.org/1999/xlink" style="isolation:isolate" width="225px" height="225px"> <g> <path d="M 10 0 L 215 0 C 220.519 0 225 4.481 225 10 L 225 215 C 225 220.519 220.519 225 215 225 L 10 225 C 4.481 225 0 220.519 0 215 L 0 10 C 0 4.481 4.481 0 10 0 Z" style="stroke:none;fill:#DF2731;stroke-miterlimit:10;" /> <path d=" M 87.029 81 L 41.5 81 L 41.5 180 L 164.5 180 L 164.5 95 L 103.5 95 L 87.029 81 Z " fill="rgb(223,39,49)" vector-effect="non-scaling-stroke" stroke-width="10" stroke="rgb(255,255,255)" stroke-linejoin="miter" stroke-linecap="square" stroke-miterlimit="3"> <animate id="folderBack" dur="150ms" begin="350ms; folderBackScaled.end + 2.1" attributeName="d" from=" M 87.029 81 L 41.5 81 L 41.5 180 L 164.5 180 L 164.5 95 L 103.5 95 L 87.029 81 Z " to=" M 87.029 102 L 41.5 102 L 41.5 180 L 164.5 180 L 164.5 113.03 L 103.5 113.03 L 87.029 102 Z " /> <animate id="folderBackScaled" dur="150ms" begin="folderBack.end" attributeName="d" from=" M 87.029 102 L 41.5 102 L 41.5 180 L 164.5 180 L 164.5 113.03 L 103.5 113.03 L 87.029 102 Z " to=" M 87.029 81 L 41.5 81 L 41.5 180 L 164.5 180 L 164.5 95 L 103.5 95 L 87.029 81 Z " /> </path>  <path d=" M 100 -24 C 100 -35.59 109.41 -45 121 -45 C 132.59 -45 142 -35.59 142 -24 C 142 -12.41 132.59 -3 121 -3 C 109.41 -3 100 -12.41 100 -24 Z " fill="rgb(255,255,255)" > <animate id="contributionBall" dur="400ms" begin="0s; contributionBall.end + 2" attributeName="d" to=" M 100 146 C 100 134.41 109.41 125 121 125 C 132.59 125 142 134.41 142 146 C 142 157.59 132.59 167 121 167 C 109.41 167 100 157.59 100 146 Z " /> </path>  <path d=" M 60.5 110 L 183.5 110 L 164.5 180 L 41.5 180 L 60.5 110 Z " fill="rgb(223,39,49)" mask="url(#_mask_a6sZFW0RgGmR0aM1wuwW3V635pp0Hsn3)" vector-effect="non-scaling-stroke" stroke-width="10" stroke="rgb(255,255,255)" stroke-linejoin="miter" stroke-linecap="square" stroke-miterlimit="3"> <animate id="folderFront" dur="150ms" begin="350ms; folderFrontScaled.end + 2.1" attributeName="d" from=" M 60.5 110 L 183.5 110 L 164.5 180 L 41.5 180 L 60.5 110 Z " to=" M 60.5 124.848 L 183.5 124.848 L 164.5 180 L 41.5 180 L 60.5 124.848 Z " /> <animate id="folderFrontScaled" dur="150ms" begin="folderFront.end" attributeName="d" from=" M 60.5 124.848 L 183.5 124.848 L 164.5 180 L 41.5 180 L 60.5 124.848 Z " to=" M 60.5 110 L 183.5 110 L 164.5 180 L 41.5 180 L 60.5 110 Z " /> </path> </g> </svg>