<?xml version="1.0" encoding="UTF-8" standalone="no"?><svg xmlns="http://www.w3.org/2000/svg" xmlns:xlink="http://www.w3.org/1999/xlink" style="isolation:isolate" viewBox="0 0 310 80" width="310pt" height="80pt"><defs><clipPath id="_clipPath_rpyYtuUIMRMAZoIbWONnkXxT1tfZt2uO"><rect width="310" height="80"/></clipPath></defs><g clip-path="url(#_clipPath_rpyYtuUIMRMAZoIbWONnkXxT1tfZt2uO)"><g><path d=" M 54.5 32 L 14.5 17 L 14.5 50 L 40.5 60 L 40.5 48 L 25.5 42 L 25.5 33 L 49.5 42 L 49.5 63 L 54.5 63 L 59.5 63 L 59.5 42 L 83.5 33 L 83.5 42 L 68.5 48 L 68.5 60 L 94.5 50 L 94.5 17 L 54.5 32 Z " fill-rule="evenodd" fill="rgb(223,39,49)"/><path d=" M 132.26 14.3 L 123.556 28.764 L 123.556 36.7 L 118.372 36.7 L 118.372 28.7 L 109.7 14.3 L 115.204 14.3 L 121.188 24.252 L 127.172 14.3 L 132.26 14.3 Z  M 142.364 32.54 L 154.556 32.54 L 154.556 36.7 L 137.212 36.7 L 137.212 14.3 L 154.14 14.3 L 154.14 18.46 L 142.364 18.46 L 142.364 23.324 L 152.764 23.324 L 152.764 27.356 L 142.364 27.356 L 142.364 32.54 Z  M 166.836 32.54 L 179.028 32.54 L 179.028 36.7 L 161.684 36.7 L 161.684 14.3 L 178.612 14.3 L 178.612 18.46 L 166.836 18.46 L 166.836 23.324 L 177.236 23.324 L 177.236 27.356 L 166.836 27.356 L 166.836 32.54 Z  M 186.156 36.7 L 186.156 14.3 L 191.34 14.3 L 191.34 32.476 L 202.572 32.476 L 202.572 36.7 L 186.156 36.7 Z  M 208.484 36.7 L 208.484 14.3 L 213.668 14.3 L 213.668 36.7 L 208.484 36.7 Z  M 237.116 31.708 L 237.116 25.148 L 241.852 25.148 L 241.852 34.236 L 241.852 34.236 Q 240.028 35.612 237.628 36.348 L 237.628 36.348 L 237.628 36.348 Q 235.228 37.084 232.796 37.084 L 232.796 37.084 L 232.796 37.084 Q 229.308 37.084 226.524 35.596 L 226.524 35.596 L 226.524 35.596 Q 223.74 34.108 222.156 31.468 L 222.156 31.468 L 222.156 31.468 Q 220.572 28.828 220.572 25.5 L 220.572 25.5 L 220.572 25.5 Q 220.572 22.172 222.156 19.532 L 222.156 19.532 L 222.156 19.532 Q 223.74 16.892 226.556 15.404 L 226.556 15.404 L 226.556 15.404 Q 229.372 13.916 232.892 13.916 L 232.892 13.916 L 232.892 13.916 Q 235.836 13.916 238.236 14.908 L 238.236 14.908 L 238.236 14.908 Q 240.636 15.9 242.268 17.788 L 242.268 17.788 L 238.94 20.86 L 238.94 20.86 Q 236.54 18.332 233.148 18.332 L 233.148 18.332 L 233.148 18.332 Q 231.004 18.332 229.34 19.228 L 229.34 19.228 L 229.34 19.228 Q 227.676 20.124 226.748 21.756 L 226.748 21.756 L 226.748 21.756 Q 225.82 23.388 225.82 25.5 L 225.82 25.5 L 225.82 25.5 Q 225.82 27.58 226.748 29.212 L 226.748 29.212 L 226.748 29.212 Q 227.676 30.844 229.324 31.756 L 229.324 31.756 L 229.324 31.756 Q 230.972 32.668 233.084 32.668 L 233.084 32.668 L 233.084 32.668 Q 235.324 32.668 237.116 31.708 L 237.116 31.708 Z  M 265.012 14.3 L 270.196 14.3 L 270.196 36.7 L 265.012 36.7 L 265.012 27.516 L 254.836 27.516 L 254.836 36.7 L 249.652 36.7 L 249.652 14.3 L 254.836 14.3 L 254.836 23.132 L 265.012 23.132 L 265.012 14.3 Z  M 283.148 36.7 L 283.148 18.524 L 275.98 18.524 L 275.98 14.3 L 295.5 14.3 L 295.5 18.524 L 288.332 18.524 L 288.332 36.7 L 283.148 36.7 Z " fill="rgb(223,39,49)"/><path d=" M 120.164 66.084 L 120.164 66.084 Q 117.508 66.084 115.028 65.364 L 115.028 65.364 L 115.028 65.364 Q 112.548 64.644 111.044 63.492 L 111.044 63.492 L 112.804 59.588 L 112.804 59.588 Q 114.244 60.644 116.228 61.284 L 116.228 61.284 L 116.228 61.284 Q 118.212 61.924 120.196 61.924 L 120.196 61.924 L 120.196 61.924 Q 122.404 61.924 123.46 61.268 L 123.46 61.268 L 123.46 61.268 Q 124.516 60.612 124.516 59.524 L 124.516 59.524 L 124.516 59.524 Q 124.516 58.724 123.892 58.196 L 123.892 58.196 L 123.892 58.196 Q 123.268 57.668 122.292 57.348 L 122.292 57.348 L 122.292 57.348 Q 121.316 57.028 119.652 56.644 L 119.652 56.644 L 119.652 56.644 Q 117.092 56.036 115.46 55.428 L 115.46 55.428 L 115.46 55.428 Q 113.828 54.82 112.66 53.476 L 112.66 53.476 L 112.66 53.476 Q 111.492 52.132 111.492 49.892 L 111.492 49.892 L 111.492 49.892 Q 111.492 47.94 112.548 46.356 L 112.548 46.356 L 112.548 46.356 Q 113.604 44.772 115.732 43.844 L 115.732 43.844 L 115.732 43.844 Q 117.86 42.916 120.932 42.916 L 120.932 42.916 L 120.932 42.916 Q 123.076 42.916 125.124 43.428 L 125.124 43.428 L 125.124 43.428 Q 127.172 43.94 128.708 44.9 L 128.708 44.9 L 127.108 48.836 L 127.108 48.836 Q 124.004 47.076 120.9 47.076 L 120.9 47.076 L 120.9 47.076 Q 118.724 47.076 117.684 47.78 L 117.684 47.78 L 117.684 47.78 Q 116.644 48.484 116.644 49.636 L 116.644 49.636 L 116.644 49.636 Q 116.644 50.788 117.844 51.348 L 117.844 51.348 L 117.844 51.348 Q 119.044 51.908 121.508 52.452 L 121.508 52.452 L 121.508 52.452 Q 124.068 53.06 125.7 53.668 L 125.7 53.668 L 125.7 53.668 Q 127.332 54.276 128.5 55.588 L 128.5 55.588 L 128.5 55.588 Q 129.668 56.9 129.668 59.14 L 129.668 59.14 L 129.668 59.14 Q 129.668 61.06 128.596 62.644 L 128.596 62.644 L 128.596 62.644 Q 127.524 64.228 125.38 65.156 L 125.38 65.156 L 125.38 65.156 Q 123.236 66.084 120.164 66.084 L 120.164 66.084 Z  M 145.372 61.54 L 157.564 61.54 L 157.564 65.7 L 140.22 65.7 L 140.22 43.3 L 157.148 43.3 L 157.148 47.46 L 145.372 47.46 L 145.372 52.324 L 155.772 52.324 L 155.772 56.356 L 145.372 56.356 L 145.372 61.54 Z  M 188.532 65.7 L 182.964 65.7 L 178.644 59.46 L 178.388 59.46 L 173.876 59.46 L 173.876 65.7 L 168.692 65.7 L 168.692 43.3 L 178.388 43.3 L 178.388 43.3 Q 181.364 43.3 183.556 44.292 L 183.556 44.292 L 183.556 44.292 Q 185.748 45.284 186.932 47.108 L 186.932 47.108 L 186.932 47.108 Q 188.116 48.932 188.116 51.428 L 188.116 51.428 L 188.116 51.428 Q 188.116 53.924 186.916 55.732 L 186.916 55.732 L 186.916 55.732 Q 185.716 57.54 183.508 58.5 L 183.508 58.5 L 188.532 65.7 Z  M 182.868 51.428 L 182.868 51.428 Q 182.868 49.54 181.652 48.532 L 181.652 48.532 L 181.652 48.532 Q 180.436 47.524 178.1 47.524 L 178.1 47.524 L 173.876 47.524 L 173.876 55.332 L 178.1 55.332 L 178.1 55.332 Q 180.436 55.332 181.652 54.308 L 181.652 54.308 L 181.652 54.308 Q 182.868 53.284 182.868 51.428 L 182.868 51.428 Z  M 215.596 43.3 L 220.748 43.3 L 211.052 65.7 L 205.932 65.7 L 196.268 43.3 L 201.868 43.3 L 208.684 59.3 L 215.596 43.3 Z  M 229.604 65.7 L 229.604 43.3 L 234.788 43.3 L 234.788 65.7 L 229.604 65.7 Z  M 257.82 66.084 L 257.82 66.084 Q 254.396 66.084 251.628 64.596 L 251.628 64.596 L 251.628 64.596 Q 248.86 63.108 247.276 60.468 L 247.276 60.468 L 247.276 60.468 Q 245.692 57.828 245.692 54.5 L 245.692 54.5 L 245.692 54.5 Q 245.692 51.172 247.276 48.532 L 247.276 48.532 L 247.276 48.532 Q 248.86 45.892 251.628 44.404 L 251.628 44.404 L 251.628 44.404 Q 254.396 42.916 257.852 42.916 L 257.852 42.916 L 257.852 42.916 Q 260.764 42.916 263.116 43.94 L 263.116 43.94 L 263.116 43.94 Q 265.468 44.964 267.068 46.884 L 267.068 46.884 L 263.74 49.956 L 263.74 49.956 Q 261.468 47.332 258.108 47.332 L 258.108 47.332 L 258.108 47.332 Q 256.028 47.332 254.396 48.244 L 254.396 48.244 L 254.396 48.244 Q 252.764 49.156 251.852 50.788 L 251.852 50.788 L 251.852 50.788 Q 250.94 52.42 250.94 54.5 L 250.94 54.5 L 250.94 54.5 Q 250.94 56.58 251.852 58.212 L 251.852 58.212 L 251.852 58.212 Q 252.764 59.844 254.396 60.756 L 254.396 60.756 L 254.396 60.756 Q 256.028 61.668 258.108 61.668 L 258.108 61.668 L 258.108 61.668 Q 261.468 61.668 263.74 59.012 L 263.74 59.012 L 267.068 62.084 L 267.068 62.084 Q 265.468 64.036 263.1 65.06 L 263.1 65.06 L 263.1 65.06 Q 260.732 66.084 257.82 66.084 L 257.82 66.084 Z  M 282.708 61.54 L 294.9 61.54 L 294.9 65.7 L 277.556 65.7 L 277.556 43.3 L 294.484 43.3 L 294.484 47.46 L 282.708 47.46 L 282.708 52.324 L 293.108 52.324 L 293.108 56.356 L 282.708 56.356 L 282.708 61.54 Z " fill="rgb(223,39,49)"/></g></g></svg>