<?xml version="1.0" encoding="UTF-8" standalone="no"?> <svg xmlns="http://www.w3.org/2000/svg" xmlns:xlink="http://www.w3.org/1999/xlink" style="isolation:isolate" width="225px" height="225px"> <g> <path d="M 10 0 L 215 0 C 220.519 0 225 4.481 225 10 L 225 215 C 225 220.519 220.519 225 215 225 L 10 225 C 4.481 225 0 220.519 0 215 L 0 10 C 0 4.481 4.481 0 10 0 Z" style="stroke:none;fill:#DF2731;stroke-miterlimit:10;" />  <path d=" M 76.345 182.214 C 74.879 179.643 73.861 176.792 73.391 173.77 L 64.585 173.363 C 63.595 173.317 62.828 172.475 62.873 171.484 L 63.167 165.149 C 63.213 164.158 64.054 163.391 65.045 163.437 L 73.85 163.844 L 73.85 163.844 C 74.641 160.708 76.025 157.818 77.871 155.293 L 77.871 155.293 L 71.913 148.756 C 71.245 148.023 71.297 146.886 72.03 146.218 L 76.718 141.945 C 77.451 141.277 78.588 141.33 79.256 142.063 L 85.215 148.599 C 87.899 146.994 90.905 145.883 94.101 145.386 L 94.101 145.386 L 94.509 136.581 C 94.555 135.59 95.396 134.823 96.387 134.869 L 102.723 135.162 C 103.714 135.208 104.481 136.05 104.435 137.04 L 104.027 145.846 C 106.992 146.593 109.737 147.871 112.161 149.568 L 112.161 149.568 L 119.148 143.199 C 119.881 142.531 121.019 142.584 121.687 143.317 L 125.959 148.004 C 126.628 148.737 126.575 149.875 125.842 150.543 L 119.005 156.774 C 120.754 159.567 121.961 162.726 122.485 166.096 L 122.485 166.096 L 131.291 166.504 C 132.282 166.55 133.049 167.392 133.003 168.382 L 132.709 174.718 C 132.664 175.709 131.822 176.476 130.831 176.43 L 122.026 176.022 C 121.235 179.159 119.851 182.049 118.005 184.574 L 123.963 191.111 C 124.632 191.844 124.579 192.981 123.846 193.649 L 119.158 197.922 C 118.425 198.59 117.288 198.537 116.62 197.804 L 110.661 191.267 L 110.661 191.267 C 107.977 192.872 104.971 193.984 101.775 194.481 L 101.367 203.286 C 101.321 204.277 100.48 205.044 99.489 204.998 L 93.153 204.705 C 92.163 204.659 91.396 203.817 91.441 202.826 L 91.849 194.021 L 91.849 194.021 C 88.542 193.188 85.508 191.694 82.888 189.694 L 76.794 195.25 C 76.061 195.918 74.923 195.865 74.255 195.132 L 69.983 190.445 C 69.314 189.712 69.367 188.574 70.1 187.906 L 76.345 182.214 Z  M 88.012 169.474 C 88.266 163.996 92.919 159.754 98.398 160.008 C 103.876 160.261 108.118 164.915 107.864 170.393 C 107.61 175.871 102.957 180.113 97.479 179.859 C 92 179.606 87.759 174.952 88.012 169.474 L 88.012 169.474 L 88.012 169.474 L 88.012 169.474 L 88.012 169.474 L 88.012 169.474 L 88.012 169.474 L 88.012 169.474 L 88.012 169.474 Z " fill-rule="evenodd" fill="rgb(255,255,255)"> <animate id="smallCog" dur="300ms" begin="0s; smallCog.end" attributeName="d" from=" M 76.345 182.214 C 74.879 179.643 73.861 176.792 73.391 173.77 L 64.585 173.363 C 63.595 173.317 62.828 172.475 62.873 171.484 L 63.167 165.149 C 63.213 164.158 64.054 163.391 65.045 163.437 L 73.85 163.844 L 73.85 163.844 C 74.641 160.708 76.025 157.818 77.871 155.293 L 77.871 155.293 L 71.913 148.756 C 71.245 148.023 71.297 146.886 72.03 146.218 L 76.718 141.945 C 77.451 141.277 78.588 141.33 79.256 142.063 L 85.215 148.599 C 87.899 146.994 90.905 145.883 94.101 145.386 L 94.101 145.386 L 94.509 136.581 C 94.555 135.59 95.396 134.823 96.387 134.869 L 102.723 135.162 C 103.714 135.208 104.481 136.05 104.435 137.04 L 104.027 145.846 C 106.992 146.593 109.737 147.871 112.161 149.568 L 112.161 149.568 L 119.148 143.199 C 119.881 142.531 121.019 142.584 121.687 143.317 L 125.959 148.004 C 126.628 148.737 126.575 149.875 125.842 150.543 L 119.005 156.774 C 120.754 159.567 121.961 162.726 122.485 166.096 L 122.485 166.096 L 131.291 166.504 C 132.282 166.55 133.049 167.392 133.003 168.382 L 132.709 174.718 C 132.664 175.709 131.822 176.476 130.831 176.43 L 122.026 176.022 C 121.235 179.159 119.851 182.049 118.005 184.574 L 123.963 191.111 C 124.632 191.844 124.579 192.981 123.846 193.649 L 119.158 197.922 C 118.425 198.59 117.288 198.537 116.62 197.804 L 110.661 191.267 L 110.661 191.267 C 107.977 192.872 104.971 193.984 101.775 194.481 L 101.367 203.286 C 101.321 204.277 100.48 205.044 99.489 204.998 L 93.153 204.705 C 92.163 204.659 91.396 203.817 91.441 202.826 L 91.849 194.021 L 91.849 194.021 C 88.542 193.188 85.508 191.694 82.888 189.694 L 76.794 195.25 C 76.061 195.918 74.923 195.865 74.255 195.132 L 69.983 190.445 C 69.314 189.712 69.367 188.574 70.1 187.906 L 76.345 182.214 Z  M 88.012 169.474 C 88.266 163.996 92.919 159.754 98.398 160.008 C 103.876 160.261 108.118 164.915 107.864 170.393 C 107.61 175.871 102.957 180.113 97.479 179.859 C 92 179.606 87.759 174.952 88.012 169.474 L 88.012 169.474 L 88.012 169.474 L 88.012 169.474 L 88.012 169.474 L 88.012 169.474 L 88.012 169.474 L 88.012 169.474 L 88.012 169.474 Z " to=" M 91.575 193.945 C 88.714 193.191 85.965 191.92 83.48 190.139 L 77.02 196.137 C 76.294 196.811 75.156 196.769 74.481 196.043 L 70.165 191.395 C 69.49 190.668 69.532 189.53 70.259 188.855 L 76.719 182.857 L 76.719 182.857 C 75.034 180.096 73.941 177.083 73.433 173.997 L 73.433 173.997 L 64.594 173.67 C 63.603 173.633 62.828 172.799 62.865 171.808 L 63.1 165.469 C 63.136 164.478 63.971 163.703 64.962 163.74 L 73.801 164.068 C 74.536 161.028 75.849 158.104 77.733 155.475 L 77.733 155.475 L 71.735 149.016 C 71.06 148.289 71.102 147.151 71.829 146.476 L 76.477 142.16 C 77.204 141.485 78.342 141.528 79.016 142.254 L 85.014 148.714 C 87.625 147.121 90.46 146.058 93.369 145.517 L 93.369 145.517 L 93.719 136.069 C 93.755 135.078 94.59 134.303 95.581 134.34 L 101.919 134.575 C 102.91 134.611 103.685 135.446 103.648 136.437 L 103.306 145.681 C 106.524 146.39 109.624 147.741 112.396 149.728 L 112.396 149.728 L 118.856 143.73 C 119.583 143.055 120.721 143.098 121.395 143.824 L 125.711 148.472 C 126.386 149.199 126.344 150.337 125.617 151.012 L 119.158 157.01 C 120.842 159.771 121.935 162.784 122.443 165.87 L 131.282 166.197 C 132.273 166.234 133.048 167.068 133.011 168.059 L 132.777 174.397 C 132.74 175.389 131.905 176.163 130.914 176.127 L 122.075 175.799 L 122.075 175.799 C 121.341 178.839 120.028 181.763 118.143 184.392 L 124.141 190.851 C 124.816 191.578 124.774 192.716 124.047 193.391 L 119.399 197.707 C 118.673 198.381 117.535 198.339 116.86 197.612 L 110.862 191.153 L 110.862 191.153 C 107.95 192.929 104.759 194.048 101.497 194.516 L 101.192 202.757 C 101.155 203.749 100.32 204.523 99.329 204.487 L 92.991 204.252 C 92 204.215 91.225 203.381 91.262 202.39 L 91.575 193.945 Z  M 90.657 176.695 C 86.925 172.676 87.158 166.384 91.177 162.652 C 95.196 158.92 101.488 159.153 105.22 163.172 C 108.951 167.191 108.718 173.483 104.699 177.215 C 100.681 180.947 94.388 180.713 90.657 176.695 L 90.657 176.695 L 90.657 176.695 L 90.657 176.695 L 90.657 176.695 L 90.657 176.695 L 90.657 176.695 L 90.657 176.695 L 90.657 176.695 Z " /> </path> <path d=" M 132.953 146.193 C 129.915 143.336 127.364 139.916 125.481 136.039 L 113.45 139.131 C 112.096 139.478 110.715 138.662 110.367 137.308 L 108.143 128.651 C 107.795 127.297 108.612 125.916 109.965 125.568 L 121.997 122.477 L 121.997 122.477 C 121.765 117.924 122.435 113.458 123.878 109.294 L 123.878 109.294 L 113.149 102.95 C 111.945 102.239 111.546 100.685 112.257 99.482 L 116.806 91.788 C 117.517 90.584 119.072 90.185 120.275 90.896 L 131.005 97.24 C 133.957 93.968 137.548 91.228 141.648 89.237 L 141.648 89.237 L 138.557 77.205 C 138.209 75.852 139.026 74.47 140.38 74.122 L 149.037 71.898 C 150.39 71.55 151.772 72.367 152.12 73.721 L 155.211 85.752 C 159.514 85.533 163.741 86.119 167.708 87.404 L 167.708 87.404 L 174.488 75.935 C 175.199 74.732 176.754 74.333 177.957 75.044 L 185.651 79.593 C 186.854 80.304 187.254 81.858 186.542 83.061 L 179.908 94.283 C 183.419 97.323 186.351 101.079 188.451 105.403 L 188.451 105.403 L 200.482 102.312 C 201.836 101.964 203.217 102.781 203.565 104.135 L 205.789 112.792 C 206.137 114.146 205.32 115.527 203.967 115.875 L 191.935 118.966 C 192.167 123.518 191.498 127.985 190.054 132.149 L 200.784 138.492 C 201.987 139.204 202.386 140.758 201.675 141.961 L 197.126 149.655 C 196.415 150.858 194.861 151.258 193.657 150.546 L 182.928 144.203 L 182.928 144.203 C 179.975 147.475 176.385 150.215 172.284 152.206 L 175.375 164.238 C 175.723 165.591 174.906 166.973 173.553 167.32 L 164.896 169.545 C 163.542 169.892 162.16 169.076 161.813 167.722 L 158.722 155.691 L 158.722 155.691 C 153.921 155.935 149.216 155.177 144.861 153.566 L 138.946 163.57 C 138.235 164.773 136.681 165.173 135.478 164.461 L 127.783 159.913 C 126.58 159.201 126.181 157.647 126.892 156.444 L 132.953 146.193 Z  M 143.404 124.206 C 141.48 116.721 145.996 109.082 153.482 107.159 C 160.967 105.236 168.606 109.752 170.529 117.237 C 172.452 124.722 167.936 132.361 160.451 134.284 C 152.965 136.207 145.327 131.691 143.404 124.206 L 143.404 124.206 L 143.404 124.206 L 143.404 124.206 L 143.404 124.206 L 143.404 124.206 L 143.404 124.206 L 143.404 124.206 L 143.404 124.206 Z " fill-rule="evenodd" fill="rgb(255,255,255)"> <animate id="smallCog" dur="300ms" begin="0s; smallCog.end" attributeName="d" from=" M 132.953 146.193 C 129.915 143.336 127.364 139.916 125.481 136.039 L 113.45 139.131 C 112.096 139.478 110.715 138.662 110.367 137.308 L 108.143 128.651 C 107.795 127.297 108.612 125.916 109.965 125.568 L 121.997 122.477 L 121.997 122.477 C 121.765 117.924 122.435 113.458 123.878 109.294 L 123.878 109.294 L 113.149 102.95 C 111.945 102.239 111.546 100.685 112.257 99.482 L 116.806 91.788 C 117.517 90.584 119.072 90.185 120.275 90.896 L 131.005 97.24 C 133.957 93.968 137.548 91.228 141.648 89.237 L 141.648 89.237 L 138.557 77.205 C 138.209 75.852 139.026 74.47 140.38 74.122 L 149.037 71.898 C 150.39 71.55 151.772 72.367 152.12 73.721 L 155.211 85.752 C 159.514 85.533 163.741 86.119 167.708 87.404 L 167.708 87.404 L 174.488 75.935 C 175.199 74.732 176.754 74.333 177.957 75.044 L 185.651 79.593 C 186.854 80.304 187.254 81.858 186.542 83.061 L 179.908 94.283 C 183.419 97.323 186.351 101.079 188.451 105.403 L 188.451 105.403 L 200.482 102.312 C 201.836 101.964 203.217 102.781 203.565 104.135 L 205.789 112.792 C 206.137 114.146 205.32 115.527 203.967 115.875 L 191.935 118.966 C 192.167 123.518 191.498 127.985 190.054 132.149 L 200.784 138.492 C 201.987 139.204 202.386 140.758 201.675 141.961 L 197.126 149.655 C 196.415 150.858 194.861 151.258 193.657 150.546 L 182.928 144.203 L 182.928 144.203 C 179.975 147.475 176.385 150.215 172.284 152.206 L 175.375 164.238 C 175.723 165.591 174.906 166.973 173.553 167.32 L 164.896 169.545 C 163.542 169.892 162.16 169.076 161.813 167.722 L 158.722 155.691 L 158.722 155.691 C 153.921 155.935 149.216 155.177 144.861 153.566 L 138.946 163.57 C 138.235 164.773 136.681 165.173 135.478 164.461 L 127.783 159.913 C 126.58 159.201 126.181 157.647 126.892 156.444 L 132.953 146.193 Z  M 143.404 124.206 C 141.48 116.721 145.996 109.082 153.482 107.159 C 160.967 105.236 168.606 109.752 170.529 117.237 C 172.452 124.722 167.936 132.361 160.451 134.284 C 152.965 136.207 145.327 131.691 143.404 124.206 L 143.404 124.206 L 143.404 124.206 L 143.404 124.206 L 143.404 124.206 L 143.404 124.206 L 143.404 124.206 L 143.404 124.206 L 143.404 124.206 Z " to=" M 121.981 121.934 C 121.831 117.767 122.423 113.541 123.812 109.462 L 113.085 103.197 C 111.878 102.492 111.47 100.94 112.175 99.733 L 116.683 92.014 C 117.388 90.808 118.94 90.4 120.147 91.105 L 130.874 97.37 L 130.874 97.37 C 133.911 93.971 137.528 91.267 141.483 89.322 L 141.483 89.322 L 138.317 77.266 C 137.963 75.914 138.772 74.528 140.124 74.173 L 148.769 71.903 C 150.121 71.548 151.506 72.358 151.861 73.709 L 155.027 85.765 C 159.427 85.516 163.907 86.094 168.222 87.562 L 168.222 87.562 L 174.487 76.836 C 175.192 75.629 176.744 75.221 177.951 75.926 L 185.669 80.434 C 186.876 81.139 187.283 82.691 186.579 83.898 L 180.314 94.625 C 183.527 97.496 186.119 100.885 188.036 104.589 L 188.036 104.589 L 200.922 101.205 C 202.274 100.85 203.659 101.659 204.014 103.011 L 206.285 111.656 C 206.64 113.008 205.83 114.394 204.478 114.749 L 191.87 118.059 C 192.228 122.69 191.67 127.422 190.121 131.973 L 190.121 131.973 L 200.848 138.238 C 202.055 138.943 202.462 140.495 201.757 141.702 L 197.249 149.42 C 196.545 150.627 194.992 151.034 193.786 150.33 L 183.059 144.065 C 180.022 147.464 176.404 150.168 172.449 152.112 L 175.615 164.168 C 175.97 165.52 175.161 166.906 173.809 167.261 L 165.164 169.531 C 163.812 169.886 162.426 169.077 162.071 167.725 L 158.905 155.669 L 158.905 155.669 C 154.505 155.918 150.026 155.34 145.711 153.872 L 139.446 164.599 C 138.741 165.806 137.189 166.213 135.982 165.508 L 128.264 161 C 127.057 160.296 126.649 158.743 127.354 157.537 L 133.619 146.81 L 133.619 146.81 C 130.034 143.607 127.223 139.759 125.26 135.551 L 114.019 138.502 C 112.668 138.857 111.282 138.048 110.927 136.696 L 108.657 128.051 C 108.302 126.699 109.111 125.313 110.463 124.958 L 121.981 121.934 Z  M 144.874 113.655 C 148.772 106.981 157.355 104.728 164.028 108.625 C 170.702 112.523 172.956 121.106 169.058 127.779 C 165.16 134.453 156.578 136.707 149.904 132.809 C 143.23 128.911 140.977 120.329 144.874 113.655 L 144.874 113.655 L 144.874 113.655 L 144.874 113.655 L 144.874 113.655 L 144.874 113.655 L 144.874 113.655 L 144.874 113.655 L 144.874 113.655 Z " /> </path> <path d=" M 40.732 99.496 C 38.281 95.626 36.501 91.289 35.558 86.651 L 21.912 86.651 C 20.377 86.651 19.13 85.404 19.13 83.869 L 19.13 74.05 C 19.13 72.515 20.377 71.268 21.912 71.268 L 35.558 71.268 L 35.558 71.268 C 36.556 66.361 38.489 61.792 41.164 57.756 L 41.164 57.756 L 31.482 48.074 C 30.396 46.989 30.396 45.226 31.482 44.14 L 38.424 37.197 C 39.51 36.112 41.273 36.112 42.359 37.197 L 52.041 46.879 C 56.077 44.205 60.645 42.272 65.552 41.274 L 65.552 41.274 L 65.552 27.628 C 65.552 26.093 66.799 24.846 68.334 24.846 L 78.153 24.846 C 79.688 24.846 80.935 26.093 80.935 27.628 L 80.935 41.274 C 85.574 42.217 89.91 43.996 93.78 46.447 L 93.78 46.447 L 104.129 36.099 C 105.214 35.013 106.977 35.013 108.063 36.099 L 115.006 43.041 C 116.091 44.127 116.091 45.89 115.006 46.976 L 104.88 57.101 C 107.784 61.295 109.877 66.094 110.929 71.268 L 110.929 71.268 L 124.575 71.268 C 126.11 71.268 127.357 72.515 127.357 74.05 L 127.357 83.869 C 127.357 85.404 126.11 86.651 124.575 86.651 L 110.929 86.651 C 109.931 91.558 107.998 96.126 105.323 100.162 L 115.006 109.844 C 116.091 110.93 116.091 112.693 115.006 113.779 L 108.063 120.721 C 106.977 121.807 105.214 121.807 104.129 120.721 L 94.446 111.039 L 94.446 111.039 C 90.411 113.714 85.842 115.647 80.935 116.645 L 80.935 130.291 C 80.935 131.826 79.688 133.072 78.153 133.072 L 68.334 133.072 C 66.799 133.072 65.552 131.826 65.552 130.291 L 65.552 116.645 L 65.552 116.645 C 60.378 115.593 55.58 113.5 51.386 110.596 L 42.359 119.623 C 41.273 120.708 39.51 120.708 38.424 119.623 L 31.482 112.68 C 30.396 111.594 30.396 109.831 31.482 108.746 L 40.732 99.496 Z  M 57.861 78.959 C 57.861 70.47 64.754 63.577 73.244 63.577 C 81.733 63.577 88.626 70.47 88.626 78.959 C 88.626 87.449 81.733 94.342 73.244 94.342 C 64.754 94.342 57.861 87.449 57.861 78.959 L 57.861 78.959 L 57.861 78.959 L 57.861 78.959 L 57.861 78.959 L 57.861 78.959 L 57.861 78.959 L 57.861 78.959 L 57.861 78.959 Z " fill-rule="evenodd" fill="rgb(255,255,255)"> <animate id="smallCog" dur="300ms" begin="0s; smallCog.end" attributeName="d" from=" M 40.732 99.496 C 38.281 95.626 36.501 91.289 35.558 86.651 L 21.912 86.651 C 20.377 86.651 19.13 85.404 19.13 83.869 L 19.13 74.05 C 19.13 72.515 20.377 71.268 21.912 71.268 L 35.558 71.268 L 35.558 71.268 C 36.556 66.361 38.489 61.792 41.164 57.756 L 41.164 57.756 L 31.482 48.074 C 30.396 46.989 30.396 45.226 31.482 44.14 L 38.424 37.197 C 39.51 36.112 41.273 36.112 42.359 37.197 L 52.041 46.879 C 56.077 44.205 60.645 42.272 65.552 41.274 L 65.552 41.274 L 65.552 27.628 C 65.552 26.093 66.799 24.846 68.334 24.846 L 78.153 24.846 C 79.688 24.846 80.935 26.093 80.935 27.628 L 80.935 41.274 C 85.574 42.217 89.91 43.996 93.78 46.447 L 93.78 46.447 L 104.129 36.099 C 105.214 35.013 106.977 35.013 108.063 36.099 L 115.006 43.041 C 116.091 44.127 116.091 45.89 115.006 46.976 L 104.88 57.101 C 107.784 61.295 109.877 66.094 110.929 71.268 L 110.929 71.268 L 124.575 71.268 C 126.11 71.268 127.357 72.515 127.357 74.05 L 127.357 83.869 C 127.357 85.404 126.11 86.651 124.575 86.651 L 110.929 86.651 C 109.931 91.558 107.998 96.126 105.323 100.162 L 115.006 109.844 C 116.091 110.93 116.091 112.693 115.006 113.779 L 108.063 120.721 C 106.977 121.807 105.214 121.807 104.129 120.721 L 94.446 111.039 L 94.446 111.039 C 90.411 113.714 85.842 115.647 80.935 116.645 L 80.935 130.291 C 80.935 131.826 79.688 133.072 78.153 133.072 L 68.334 133.072 C 66.799 133.072 65.552 131.826 65.552 130.291 L 65.552 116.645 L 65.552 116.645 C 60.378 115.593 55.58 113.5 51.386 110.596 L 42.359 119.623 C 41.273 120.708 39.51 120.708 38.424 119.623 L 31.482 112.68 C 30.396 111.594 30.396 109.831 31.482 108.746 L 40.732 99.496 Z  M 57.861 78.959 C 57.861 70.47 64.754 63.577 73.244 63.577 C 81.733 63.577 88.626 70.47 88.626 78.959 C 88.626 87.449 81.733 94.342 73.244 94.342 C 64.754 94.342 57.861 87.449 57.861 78.959 L 57.861 78.959 L 57.861 78.959 L 57.861 78.959 L 57.861 78.959 L 57.861 78.959 L 57.861 78.959 L 57.861 78.959 L 57.861 78.959 Z " to=" M 64.775 116.47 C 60.306 115.467 55.982 113.659 52.035 111.045 L 42.385 120.695 C 41.3 121.78 39.537 121.78 38.451 120.695 L 31.508 113.752 C 30.423 112.666 30.423 110.903 31.508 109.818 L 41.158 100.168 L 41.158 100.168 C 38.393 95.993 36.53 91.395 35.567 86.651 L 35.567 86.651 L 21.874 86.651 C 20.339 86.651 19.092 85.404 19.092 83.869 L 19.092 74.05 C 19.092 72.515 20.339 71.268 21.874 71.268 L 35.567 71.268 C 36.53 66.523 38.393 61.926 41.158 57.75 L 41.158 57.75 L 31.508 48.101 C 30.423 47.016 30.423 45.253 31.508 44.167 L 38.451 37.224 C 39.537 36.139 41.3 36.139 42.385 37.224 L 52.035 46.873 C 55.982 44.26 60.306 42.452 64.775 41.449 L 64.775 41.449 L 64.775 26.813 C 64.775 25.278 66.022 24.031 67.557 24.031 L 77.376 24.031 C 78.911 24.031 80.158 25.278 80.158 26.813 L 80.158 41.133 C 85.177 42.045 90.05 43.958 94.453 46.873 L 94.453 46.873 L 104.102 37.224 C 105.187 36.139 106.95 36.139 108.036 37.224 L 114.979 44.167 C 116.064 45.253 116.064 47.016 114.979 48.101 L 105.33 57.75 C 108.094 61.926 109.957 66.523 110.92 71.268 L 124.613 71.268 C 126.148 71.268 127.395 72.515 127.395 74.05 L 127.395 83.869 C 127.395 85.404 126.148 86.651 124.613 86.651 L 110.92 86.651 L 110.92 86.651 C 109.957 91.395 108.094 95.993 105.33 100.168 L 114.979 109.818 C 116.064 110.903 116.064 112.666 114.979 113.752 L 108.036 120.695 C 106.95 121.78 105.187 121.78 104.102 120.695 L 94.453 111.045 L 94.453 111.045 C 90.05 113.96 85.177 115.874 80.158 116.785 L 80.158 129.552 C 80.158 131.087 78.911 132.334 77.376 132.334 L 67.557 132.334 C 66.022 132.334 64.775 131.087 64.775 129.552 L 64.775 116.47 Z  M 62.367 89.836 C 56.363 83.833 56.363 74.086 62.367 68.082 C 68.37 62.079 78.117 62.079 84.121 68.082 C 90.124 74.086 90.124 83.833 84.121 89.836 C 78.117 95.84 68.37 95.84 62.367 89.836 L 62.367 89.836 L 62.367 89.836 L 62.367 89.836 L 62.367 89.836 L 62.367 89.836 L 62.367 89.836 L 62.367 89.836 L 62.367 89.836 Z " /> </path> </g> </svg>