<?xml version="1.0" encoding="UTF-8" standalone="no"?> <svg xmlns="http://www.w3.org/2000/svg" xmlns:xlink="http://www.w3.org/1999/xlink" style="isolation:isolate" width="225px" height="225px"> <g> <path xmlns="http://www.w3.org/2000/svg" d="M 10 0 L 215 0 C 220.519 0 225 4.481 225 10 L 225 215 C 225 220.519 220.519 225 215 225 L 10 225 C 4.481 225 0 220.519 0 215 L 0 10 C 0 4.481 4.481 0 10 0 Z" style="stroke:none;fill:#DF2731;stroke-miterlimit:10;"/> <path d=" M 192.502 106.118 Q 202.127 100.283 192.502 94.571 Q 182.877 88.858 112.502 48.383 Q 102.486 42.617 92.502 48.383 Q 82.518 54.148 52.502 71.477 Q 42.877 77.376 52.502 83.024 Q 62.127 88.671 72.502 94.571 Q 82.627 100.314 72.502 106.118 Q 62.377 111.921 32.502 129.212 Q 22.494 134.979 32.502 140.759 Q 42.51 146.538 72.502 163.853 Q 82.439 169.722 92.502 163.853 Q 102.564 157.983 192.502 106.118 Z M 127.718 79.805 L 143.529 88.934 Q 159.475 98.118 143.529 107.19 Q 135.565 111.721 127.718 116.319 L 135.623 120.883 L 104.002 120.883 L 111.907 107.19 L 119.813 111.754 L 135.623 102.626 Q 143.455 98.049 135.623 93.498 Q 127.792 88.947 119.813 84.37 L 127.718 79.805 Z " fill-rule="evenodd" fill="rgb(255,255,255)" vector-effect="non-scaling-stroke" stroke-width="1" stroke="rgb(223,39,49)" stroke-linejoin="miter" stroke-linecap="square" stroke-miterlimit="3"> <animate id="pressingButton" dur="300ms" begin="0s; pressingReturn.end + 1" attributeName="d" from=" M 192.502 106.118 Q 202.127 100.283 192.502 94.571 Q 182.877 88.858 112.502 48.383 Q 102.486 42.617 92.502 48.383 Q 82.518 54.148 52.502 71.477 Q 42.877 77.376 52.502 83.024 Q 62.127 88.671 72.502 94.571 Q 82.627 100.314 72.502 106.118 Q 62.377 111.921 32.502 129.212 Q 22.494 134.979 32.502 140.759 Q 42.51 146.538 72.502 163.853 Q 82.439 169.722 92.502 163.853 Q 102.564 157.983 192.502 106.118 Z M 127.718 79.805 L 143.529 88.934 Q 159.475 98.118 143.529 107.19 Q 135.565 111.721 127.718 116.319 L 135.623 120.883 L 104.002 120.883 L 111.907 107.19 L 119.813 111.754 L 135.623 102.626 Q 143.455 98.049 135.623 93.498 Q 127.792 88.947 119.813 84.37 L 127.718 79.805 Z " to=" M 192.502 113.118 Q 202.127 107.283 192.502 101.571 Q 182.877 95.858 112.502 55.383 Q 102.486 49.617 92.502 55.383 Q 82.518 61.148 52.502 78.477 Q 42.877 84.376 52.502 90.024 Q 62.127 95.671 72.502 101.571 Q 82.627 107.314 72.502 113.118 Q 62.377 118.921 32.502 136.212 Q 22.494 141.979 32.502 147.759 Q 42.51 153.538 72.502 170.853 Q 82.439 176.722 92.502 170.853 Q 102.564 164.983 192.502 113.118 Z M 127.718 86.805 L 143.529 95.934 Q 159.475 105.118 143.529 114.19 Q 135.565 118.721 127.718 123.319 L 135.623 127.883 L 104.002 127.883 L 111.907 114.19 L 119.813 118.754 L 135.623 109.626 Q 143.455 105.049 135.623 100.498 Q 127.792 95.947 119.813 91.37 L 127.718 86.805 Z "/> <animate id="pressingReturn" dur="300ms" begin="pressingButton.end" attributeName="d" from=" M 192.502 113.118 Q 202.127 107.283 192.502 101.571 Q 182.877 95.858 112.502 55.383 Q 102.486 49.617 92.502 55.383 Q 82.518 61.148 52.502 78.477 Q 42.877 84.376 52.502 90.024 Q 62.127 95.671 72.502 101.571 Q 82.627 107.314 72.502 113.118 Q 62.377 118.921 32.502 136.212 Q 22.494 141.979 32.502 147.759 Q 42.51 153.538 72.502 170.853 Q 82.439 176.722 92.502 170.853 Q 102.564 164.983 192.502 113.118 Z M 127.718 86.805 L 143.529 95.934 Q 159.475 105.118 143.529 114.19 Q 135.565 118.721 127.718 123.319 L 135.623 127.883 L 104.002 127.883 L 111.907 114.19 L 119.813 118.754 L 135.623 109.626 Q 143.455 105.049 135.623 100.498 Q 127.792 95.947 119.813 91.37 L 127.718 86.805 Z " to=" M 192.502 106.118 Q 202.127 100.283 192.502 94.571 Q 182.877 88.858 112.502 48.383 Q 102.486 42.617 92.502 48.383 Q 82.518 54.148 52.502 71.477 Q 42.877 77.376 52.502 83.024 Q 62.127 88.671 72.502 94.571 Q 82.627 100.314 72.502 106.118 Q 62.377 111.921 32.502 129.212 Q 22.494 134.979 32.502 140.759 Q 42.51 146.538 72.502 163.853 Q 82.439 169.722 92.502 163.853 Q 102.564 157.983 192.502 106.118 Z M 127.718 79.805 L 143.529 88.934 Q 159.475 98.118 143.529 107.19 Q 135.565 111.721 127.718 116.319 L 135.623 120.883 L 104.002 120.883 L 111.907 107.19 L 119.813 111.754 L 135.623 102.626 Q 143.455 98.049 135.623 93.498 Q 127.792 88.947 119.813 84.37 L 127.718 79.805 Z " /> </path> <path d=" M 100 100.953 C 100 92.987 111.721 89.406 120 89.406 C 128.279 89.406 140 92.987 140 100.953 C 140 108.919 128.279 112.5 120 112.5 C 111.721 112.5 100 108.919 100 100.953 Z M 113.815 100.953 C 113.815 103.417 117.44 104.524 120 104.524 C 122.56 104.524 126.185 103.417 126.185 100.953 C 126.185 98.489 122.56 97.382 120 97.382 C 117.44 97.382 113.815 98.489 113.815 100.953 Z " fill-rule="evenodd" fill="rgb(223,39,49)" fill-opacity="0.75"> <animate dur="300ms" begin="0ms; circleOpacity2.end" attributeName="d" from=" M 100 100.953 C 100 92.987 111.721 89.406 120 89.406 C 128.279 89.406 140 92.987 140 100.953 C 140 108.919 128.279 112.5 120 112.5 C 111.721 112.5 100 108.919 100 100.953 Z M 113.815 100.953 C 113.815 103.417 117.44 104.524 120 104.524 C 122.56 104.524 126.185 103.417 126.185 100.953 C 126.185 98.489 122.56 97.382 120 97.382 C 117.44 97.382 113.815 98.489 113.815 100.953 Z " to=" M -1.358 107.953 C -1.358 59.615 69.765 37.887 120 37.887 C 170.235 37.887 241.358 59.615 241.358 107.953 C 241.358 156.291 170.235 178.019 120 178.019 C 69.765 178.019 -1.358 156.291 -1.358 107.953 Z M 29.856 107.953 C 29.856 72.048 82.686 55.908 120 55.908 C 157.314 55.908 210.144 72.048 210.144 107.953 C 210.144 143.858 157.314 159.998 120 159.998 C 82.686 159.998 29.856 143.858 29.856 107.953 Z " /> <animate id="circleOpacity" dur="300ms" begin="0ms; circleOpacity2.end" attributeName="opacity" from="0.75" to="0" /> <animate id="circleOpacity2" dur="1300ms" begin="circleOpacity.end" attributeName="opacity" from="0" to="0" /> </path> <path d=" M 100 100.953 C 100 92.987 111.721 89.406 120 89.406 C 128.279 89.406 140 92.987 140 100.953 C 140 108.919 128.279 112.5 120 112.5 C 111.721 112.5 100 108.919 100 100.953 Z M 113.815 100.953 C 113.815 103.417 117.44 104.524 120 104.524 C 122.56 104.524 126.185 103.417 126.185 100.953 C 126.185 98.489 122.56 97.382 120 97.382 C 117.44 97.382 113.815 98.489 113.815 100.953 Z " fill-rule="evenodd" fill="rgb(223,39,49)" fill-opacity="0.75"> <animate dur="300ms" begin="60ms; circleOpacity2_2.end" attributeName="d" from=" M 100 100.953 C 100 92.987 111.721 89.406 120 89.406 C 128.279 89.406 140 92.987 140 100.953 C 140 108.919 128.279 112.5 120 112.5 C 111.721 112.5 100 108.919 100 100.953 Z M 113.815 100.953 C 113.815 103.417 117.44 104.524 120 104.524 C 122.56 104.524 126.185 103.417 126.185 100.953 C 126.185 98.489 122.56 97.382 120 97.382 C 117.44 97.382 113.815 98.489 113.815 100.953 Z " to=" M -1.358 107.953 C -1.358 59.615 69.765 37.887 120 37.887 C 170.235 37.887 241.358 59.615 241.358 107.953 C 241.358 156.291 170.235 178.019 120 178.019 C 69.765 178.019 -1.358 156.291 -1.358 107.953 Z M 29.856 107.953 C 29.856 72.048 82.686 55.908 120 55.908 C 157.314 55.908 210.144 72.048 210.144 107.953 C 210.144 143.858 157.314 159.998 120 159.998 C 82.686 159.998 29.856 143.858 29.856 107.953 Z " /> <animate id="circleOpacity_2" dur="300ms" begin="60ms; circleOpacity2_2.end" attributeName="opacity" from="0.75" to="0" /> <animate id="circleOpacity2_2" dur="1300ms" begin="circleOpacity_2.end" attributeName="opacity" from="0" to="0" /> </path> <path d=" M 100 100.953 C 100 92.987 111.721 89.406 120 89.406 C 128.279 89.406 140 92.987 140 100.953 C 140 108.919 128.279 112.5 120 112.5 C 111.721 112.5 100 108.919 100 100.953 Z M 113.815 100.953 C 113.815 103.417 117.44 104.524 120 104.524 C 122.56 104.524 126.185 103.417 126.185 100.953 C 126.185 98.489 122.56 97.382 120 97.382 C 117.44 97.382 113.815 98.489 113.815 100.953 Z " fill-rule="evenodd" fill="rgb(223,39,49)" fill-opacity="0.75"> <animate dur="300ms" begin="120ms; circleOpacity2_3.end" attributeName="d" from=" M 100 100.953 C 100 92.987 111.721 89.406 120 89.406 C 128.279 89.406 140 92.987 140 100.953 C 140 108.919 128.279 112.5 120 112.5 C 111.721 112.5 100 108.919 100 100.953 Z M 113.815 100.953 C 113.815 103.417 117.44 104.524 120 104.524 C 122.56 104.524 126.185 103.417 126.185 100.953 C 126.185 98.489 122.56 97.382 120 97.382 C 117.44 97.382 113.815 98.489 113.815 100.953 Z " to=" M -1.358 107.953 C -1.358 59.615 69.765 37.887 120 37.887 C 170.235 37.887 241.358 59.615 241.358 107.953 C 241.358 156.291 170.235 178.019 120 178.019 C 69.765 178.019 -1.358 156.291 -1.358 107.953 Z M 29.856 107.953 C 29.856 72.048 82.686 55.908 120 55.908 C 157.314 55.908 210.144 72.048 210.144 107.953 C 210.144 143.858 157.314 159.998 120 159.998 C 82.686 159.998 29.856 143.858 29.856 107.953 Z " /> <animate id="circleOpacity_3" dur="300ms" begin="120ms; circleOpacity2_3.end" attributeName="opacity" from="0.75" to="0" /> <animate id="circleOpacity2_3" dur="1300ms" begin="circleOpacity_3.end" attributeName="opacity" from="0" to="0" /> </path> <path d=" M 100 100.953 C 100 92.987 111.721 89.406 120 89.406 C 128.279 89.406 140 92.987 140 100.953 C 140 108.919 128.279 112.5 120 112.5 C 111.721 112.5 100 108.919 100 100.953 Z M 113.815 100.953 C 113.815 103.417 117.44 104.524 120 104.524 C 122.56 104.524 126.185 103.417 126.185 100.953 C 126.185 98.489 122.56 97.382 120 97.382 C 117.44 97.382 113.815 98.489 113.815 100.953 Z " fill-rule="evenodd" fill="rgb(223,39,49)" fill-opacity="0.75"> <animate dur="300ms" begin="180ms; circleOpacity2_4.end" attributeName="d" from=" M 100 100.953 C 100 92.987 111.721 89.406 120 89.406 C 128.279 89.406 140 92.987 140 100.953 C 140 108.919 128.279 112.5 120 112.5 C 111.721 112.5 100 108.919 100 100.953 Z M 113.815 100.953 C 113.815 103.417 117.44 104.524 120 104.524 C 122.56 104.524 126.185 103.417 126.185 100.953 C 126.185 98.489 122.56 97.382 120 97.382 C 117.44 97.382 113.815 98.489 113.815 100.953 Z " to=" M -1.358 107.953 C -1.358 59.615 69.765 37.887 120 37.887 C 170.235 37.887 241.358 59.615 241.358 107.953 C 241.358 156.291 170.235 178.019 120 178.019 C 69.765 178.019 -1.358 156.291 -1.358 107.953 Z M 29.856 107.953 C 29.856 72.048 82.686 55.908 120 55.908 C 157.314 55.908 210.144 72.048 210.144 107.953 C 210.144 143.858 157.314 159.998 120 159.998 C 82.686 159.998 29.856 143.858 29.856 107.953 Z " /> <animate id="circleOpacity_4" dur="300ms" begin="180ms; circleOpacity2_4.end" attributeName="opacity" from="0.75" to="0" /> <animate id="circleOpacity2_4" dur="1300ms" begin="circleOpacity_4.end" attributeName="opacity" from="0" to="0" /> </path> <path d=" M 27.525 135.408 L 27.502 147.421 Q 27.647 150.261 32.502 153.104 Q 42.51 158.965 72.502 176.524 Q 82.439 182.476 92.502 176.524 Q 102.564 170.572 192.502 117.974 Q 197.393 114.966 197.502 111.891 L 197.312 100.434 Q 197.214 103.261 192.502 106.118 Q 102.564 157.983 92.502 163.853 Q 82.439 169.722 72.502 163.853 Q 42.51 146.538 32.502 140.759 Q 27.868 138.082 27.525 135.408 Z M 52.502 94.553 Q 48.265 92.032 47.758 89.461 L 47.69 77.279 Q 47.661 80.183 52.502 83.024 Q 62.127 88.671 72.502 94.571 Q 82.627 100.314 72.502 106.118 Q 62.068 100.246 52.502 94.553 Z " fill-rule="evenodd" fill="rgb(215,215,215)" vector-effect="non-scaling-stroke" stroke-width="1" stroke="rgb(223,39,49)" stroke-linejoin="miter" stroke-linecap="square" stroke-miterlimit="3"> <animate id="pressingButton" dur="300ms" begin="0s; pressingReturn.end + 1" attributeName="d" from=" M 27.525 135.408 L 27.502 147.421 Q 27.647 150.261 32.502 153.104 Q 42.51 158.965 72.502 176.524 Q 82.439 182.476 92.502 176.524 Q 102.564 170.572 192.502 117.974 Q 197.393 114.966 197.502 111.891 L 197.312 100.434 Q 197.214 103.261 192.502 106.118 Q 102.564 157.983 92.502 163.853 Q 82.439 169.722 72.502 163.853 Q 42.51 146.538 32.502 140.759 Q 27.868 138.082 27.525 135.408 Z M 52.502 94.553 Q 48.265 92.032 47.758 89.461 L 47.69 77.279 Q 47.661 80.183 52.502 83.024 Q 62.127 88.671 72.502 94.571 Q 82.627 100.314 72.502 106.118 Q 62.068 100.246 52.502 94.553 Z " to=" M 27.525 142.408 L 27.502 147.421 Q 27.647 150.261 32.502 153.104 Q 42.51 158.965 72.502 176.524 Q 82.439 182.476 92.502 176.524 Q 102.564 170.572 192.502 117.974 Q 197.393 114.966 197.502 111.891 L 197.312 107.434 Q 197.214 110.261 192.502 113.118 Q 102.564 164.983 92.502 170.853 Q 82.439 176.722 72.502 170.853 Q 42.51 153.538 32.502 147.759 Q 27.868 145.082 27.525 142.408 Z M 52.502 94.553 Q 48.265 92.032 47.758 89.461 L 47.69 83.279 Q 47.661 86.183 52.502 89.024 Q 62.127 94.671 72.502 100.571 Q 79.563 105.125 77 109 Q 62.068 100.246 52.502 94.553 Z "/> <animate id="pressingReturn" dur="300ms" begin="pressingButton.end" attributeName="d" from=" M 27.525 142.408 L 27.502 147.421 Q 27.647 150.261 32.502 153.104 Q 42.51 158.965 72.502 176.524 Q 82.439 182.476 92.502 176.524 Q 102.564 170.572 192.502 117.974 Q 197.393 114.966 197.502 111.891 L 197.312 107.434 Q 197.214 110.261 192.502 113.118 Q 102.564 164.983 92.502 170.853 Q 82.439 176.722 72.502 170.853 Q 42.51 153.538 32.502 147.759 Q 27.868 145.082 27.525 142.408 Z M 52.502 94.553 Q 48.265 92.032 47.758 89.461 L 47.69 83.279 Q 47.661 86.183 52.502 89.024 Q 62.127 94.671 72.502 100.571 Q 79.563 105.125 77 109 Q 62.068 100.246 52.502 94.553 Z " to=" M 27.525 135.408 L 27.502 147.421 Q 27.647 150.261 32.502 153.104 Q 42.51 158.965 72.502 176.524 Q 82.439 182.476 92.502 176.524 Q 102.564 170.572 192.502 117.974 Q 197.393 114.966 197.502 111.891 L 197.312 100.434 Q 197.214 103.261 192.502 106.118 Q 102.564 157.983 92.502 163.853 Q 82.439 169.722 72.502 163.853 Q 42.51 146.538 32.502 140.759 Q 27.868 138.082 27.525 135.408 Z M 52.502 94.553 Q 48.265 92.032 47.758 89.461 L 47.69 77.279 Q 47.661 80.183 52.502 83.024 Q 62.127 88.671 72.502 94.571 Q 82.627 100.314 72.502 106.118 Q 62.068 100.246 52.502 94.553 Z "/> </path> </g> </svg>